<svg width="130" height="54" viewBox="0 0 130 54" fill="none" xmlns="http://www.w3.org/2000/svg">
<path d="M14.8879 44H2.13609V10.8582H14.7585C18.1676 10.8582 21.1128 11.5217 23.5941 12.8486C26.0862 14.1648 28.0066 16.0636 29.3551 18.5449C30.7144 21.0154 31.3941 23.9768 31.3941 27.4291C31.3941 30.8814 30.7198 33.8482 29.3713 36.3295C28.0227 38.8 26.1132 40.6988 23.6427 42.0257C21.1721 43.3419 18.2539 44 14.8879 44ZM11.1336 36.3618H14.5643C16.2041 36.3618 17.6012 36.0975 18.7556 35.5689C19.9207 35.0403 20.8053 34.1287 21.4095 32.8341C22.0244 31.5395 22.3319 29.7378 22.3319 27.4291C22.3319 25.1204 22.019 23.3187 21.3933 22.0241C20.7784 20.7295 19.8721 19.8179 18.6746 19.2893C17.4879 18.7606 16.0315 18.4963 14.3054 18.4963H11.1336V36.3618Z" fill="white"/>
<path d="M45.2277 23H41.1786V11.0509H45.3094C46.4958 11.0509 47.5149 11.2901 48.3667 11.7686C49.2224 12.2431 49.8798 12.9257 50.3388 13.8165C50.7977 14.7072 51.0272 15.773 51.0272 17.0138C51.0272 18.2585 50.7958 19.3281 50.3329 20.2228C49.8739 21.1174 49.2108 21.8039 48.3434 22.2824C47.4799 22.7608 46.4413 23 45.2277 23ZM43.3432 21.1271H45.1227C45.9551 21.1271 46.6494 20.9754 47.2056 20.672C47.7619 20.3647 48.18 19.9077 48.4601 19.3009C48.7401 18.6902 48.8801 17.9279 48.8801 17.0138C48.8801 16.0997 48.7401 15.3412 48.4601 14.7383C48.18 14.1315 47.7657 13.6784 47.2173 13.3789C46.6727 13.0755 45.9959 12.9238 45.1869 12.9238H43.3432V21.1271ZM53.8121 23V14.0382H55.9241V23H53.8121ZM54.8739 12.7663C54.5394 12.7663 54.2516 12.6554 54.0104 12.4337C53.7693 12.2081 53.6487 11.9378 53.6487 11.6227C53.6487 11.3037 53.7693 11.0334 54.0104 10.8117C54.2516 10.5861 54.5394 10.4733 54.8739 10.4733C55.2123 10.4733 55.5002 10.5861 55.7374 10.8117C55.9786 11.0334 56.0992 11.3037 56.0992 11.6227C56.0992 11.9378 55.9786 12.2081 55.7374 12.4337C55.5002 12.6554 55.2123 12.7663 54.8739 12.7663ZM66.9225 14.0382L63.731 23H61.3972L58.2057 14.0382H60.4579L62.5174 20.6954H62.6108L64.6762 14.0382H66.9225ZM69.2056 23V14.0382H71.3176V23H69.2056ZM70.2674 12.7663C69.9329 12.7663 69.6451 12.6554 69.4039 12.4337C69.1628 12.2081 69.0422 11.9378 69.0422 11.6227C69.0422 11.3037 69.1628 11.0334 69.4039 10.8117C69.6451 10.5861 69.9329 10.4733 70.2674 10.4733C70.6058 10.4733 70.8937 10.5861 71.1309 10.8117C71.3721 11.0334 71.4927 11.3037 71.4927 11.6227C71.4927 11.9378 71.3721 12.2081 71.1309 12.4337C70.8937 12.6554 70.6058 12.7663 70.2674 12.7663Z" fill="white"/>
<path d="M51.7507 35.3801H48.8335C48.7946 35.0806 48.7148 34.8103 48.5942 34.5691C48.4737 34.328 48.3142 34.1218 48.1158 33.9507C47.9174 33.7795 47.6821 33.6492 47.4098 33.5598C47.1414 33.4664 46.8439 33.4197 46.5172 33.4197C45.9376 33.4197 45.4378 33.5617 45.0177 33.8456C44.6015 34.1296 44.2806 34.5399 44.055 35.0767C43.8333 35.6135 43.7224 36.2631 43.7224 37.0255C43.7224 37.8189 43.8352 38.4841 44.0608 39.0209C44.2903 39.5537 44.6112 39.9563 45.0235 40.2286C45.4397 40.497 45.9318 40.6312 46.4997 40.6312C46.8186 40.6312 47.1084 40.5903 47.369 40.5087C47.6335 40.427 47.8649 40.3083 48.0633 40.1528C48.2656 39.9933 48.4309 39.8007 48.5592 39.5751C48.6915 39.3456 48.7829 39.087 48.8335 38.7991L51.7507 38.8167C51.7002 39.3456 51.5465 39.8669 51.2898 40.3803C51.037 40.8937 50.6888 41.3624 50.2454 41.7864C49.802 42.2065 49.2613 42.541 48.6234 42.79C47.9894 43.0389 47.262 43.1634 46.4413 43.1634C45.36 43.1634 44.3914 42.9261 43.5357 42.4516C42.6839 41.9731 42.011 41.2769 41.517 40.3628C41.023 39.4487 40.776 38.3363 40.776 37.0255C40.776 35.7107 41.0269 34.5964 41.5286 33.6823C42.0304 32.7682 42.7092 32.0739 43.5649 31.5994C44.4206 31.1248 45.3794 30.8875 46.4413 30.8875C47.1648 30.8875 47.8338 30.9887 48.4484 31.1909C49.063 31.3893 49.6036 31.681 50.0704 32.0661C50.5371 32.4473 50.9164 32.916 51.2081 33.4722C51.4998 34.0285 51.6807 34.6644 51.7507 35.3801ZM56.7512 43.1517C56.1794 43.1517 55.6718 43.0564 55.2284 42.8658C54.7888 42.6713 54.4407 42.3796 54.184 41.9906C53.9312 41.5978 53.8048 41.1057 53.8048 40.5145C53.8048 40.0166 53.8923 39.5965 54.0673 39.2542C54.2423 38.9119 54.4835 38.6338 54.7908 38.4199C55.0981 38.206 55.452 38.0445 55.8527 37.9356C56.2533 37.8228 56.6812 37.747 57.1363 37.7081C57.6458 37.6614 58.0562 37.6128 58.3674 37.5622C58.6785 37.5078 58.9041 37.4319 59.0442 37.3347C59.1881 37.2336 59.26 37.0916 59.26 36.9088V36.8796C59.26 36.5801 59.157 36.3487 58.9508 36.1853C58.7447 36.0219 58.4665 35.9402 58.1165 35.9402C57.7392 35.9402 57.4358 36.0219 57.2063 36.1853C56.9768 36.3487 56.8309 36.5743 56.7687 36.8621L54.1373 36.7687C54.2151 36.2242 54.4154 35.738 54.7383 35.3101C55.065 34.8784 55.5123 34.54 56.0802 34.2949C56.652 34.046 57.3385 33.9215 58.1398 33.9215C58.7116 33.9215 59.2386 33.9896 59.721 34.1257C60.2033 34.2579 60.6234 34.4524 60.9812 34.7092C61.3391 34.962 61.6152 35.2732 61.8097 35.6427C62.0081 36.0122 62.1073 36.4342 62.1073 36.9088V43H59.4234V41.7514H59.3534C59.1939 42.0548 58.9897 42.3115 58.7408 42.5216C58.4957 42.7316 58.2059 42.8891 57.8714 42.9942C57.5408 43.0992 57.1674 43.1517 56.7512 43.1517ZM57.6322 41.2847C57.9395 41.2847 58.2157 41.2224 58.4607 41.0979C58.7096 40.9735 58.908 40.8023 59.0558 40.5845C59.2036 40.3628 59.2775 40.1061 59.2775 39.8144V38.9625C59.1959 39.0053 59.0967 39.0442 58.98 39.0792C58.8672 39.1142 58.7427 39.1473 58.6066 39.1784C58.4704 39.2095 58.3304 39.2367 58.1865 39.2601C58.0426 39.2834 57.9045 39.3048 57.7722 39.3243C57.5038 39.367 57.2744 39.4332 57.0838 39.5226C56.8971 39.6121 56.7531 39.7288 56.652 39.8727C56.5548 40.0127 56.5061 40.18 56.5061 40.3745C56.5061 40.6701 56.6112 40.8957 56.8212 41.0513C57.0351 41.2069 57.3055 41.2847 57.6322 41.2847ZM64.6733 43V34.0382H67.4447V35.6718H67.538C67.7014 35.0806 67.9679 34.6411 68.3374 34.3532C68.7069 34.0615 69.1367 33.9157 69.6268 33.9157C69.7591 33.9157 69.8952 33.9254 70.0352 33.9448C70.1752 33.9604 70.3056 33.9857 70.4261 34.0207V36.5003C70.29 36.4537 70.1111 36.4167 69.8894 36.3895C69.6715 36.3623 69.4771 36.3487 69.3059 36.3487C68.9675 36.3487 68.6622 36.4245 68.3899 36.5762C68.1215 36.724 67.9095 36.9321 67.7539 37.2005C67.6022 37.465 67.5264 37.7762 67.5264 38.134V43H64.6733ZM76.1282 43.1692C75.1869 43.1692 74.3779 42.9767 73.701 42.5916C73.0281 42.2026 72.5089 41.662 72.1432 40.9696C71.7815 40.2733 71.6006 39.4662 71.6006 38.5483C71.6006 37.6264 71.7815 36.8193 72.1432 36.1269C72.5089 35.4307 73.0281 34.89 73.701 34.5049C74.3779 34.116 75.1869 33.9215 76.1282 33.9215C77.0695 33.9215 77.8766 34.116 78.5495 34.5049C79.2263 34.89 79.7456 35.4307 80.1073 36.1269C80.473 36.8193 80.6558 37.6264 80.6558 38.5483C80.6558 39.4662 80.473 40.2733 80.1073 40.9696C79.7456 41.662 79.2263 42.2026 78.5495 42.5916C77.8766 42.9767 77.0695 43.1692 76.1282 43.1692ZM76.1457 41.0163C76.488 41.0163 76.7778 40.9112 77.0151 40.7012C77.2523 40.4912 77.4332 40.1994 77.5577 39.826C77.686 39.4526 77.7502 39.0209 77.7502 38.5308C77.7502 38.0329 77.686 37.5972 77.5577 37.2238C77.4332 36.8504 77.2523 36.5587 77.0151 36.3487C76.7778 36.1386 76.488 36.0336 76.1457 36.0336C75.7917 36.0336 75.4922 36.1386 75.2472 36.3487C75.006 36.5587 74.8213 36.8504 74.6929 37.2238C74.5684 37.5972 74.5062 38.0329 74.5062 38.5308C74.5062 39.0209 74.5684 39.4526 74.6929 39.826C74.8213 40.1994 75.006 40.4912 75.2472 40.7012C75.4922 40.9112 75.7917 41.0163 76.1457 41.0163ZM88.7208 39.1317V34.0382H91.5681V43H88.8492V41.3313H88.7559C88.5575 41.8798 88.2191 42.3154 87.7406 42.6383C87.2661 42.9572 86.6924 43.1167 86.0195 43.1167C85.4088 43.1167 84.872 42.9767 84.4091 42.6966C83.9463 42.4165 83.5865 42.0256 83.3298 41.5239C83.073 41.0182 82.9427 40.427 82.9388 39.7502V34.0382H85.7919V39.1901C85.7958 39.6763 85.9242 40.0594 86.177 40.3395C86.4298 40.6195 86.7741 40.7595 87.2097 40.7595C87.4937 40.7595 87.7484 40.6973 87.974 40.5728C88.2035 40.4445 88.3844 40.2597 88.5166 40.0186C88.6528 39.7735 88.7208 39.4779 88.7208 39.1317ZM102.03 36.7746L99.41 36.8446C99.3827 36.6579 99.3088 36.4926 99.1883 36.3487C99.0677 36.2008 98.9101 36.0861 98.7157 36.0044C98.5251 35.9188 98.3034 35.8761 98.0505 35.8761C97.7199 35.8761 97.4379 35.9422 97.2045 36.0744C96.975 36.2067 96.8622 36.3856 96.8661 36.6112C96.8622 36.7862 96.9322 36.9379 97.0762 37.0663C97.224 37.1947 97.4865 37.2977 97.8638 37.3755L99.5908 37.7023C100.485 37.8734 101.151 38.1574 101.586 38.5541C102.026 38.9508 102.247 39.476 102.251 40.1294C102.247 40.744 102.065 41.2788 101.703 41.7339C101.345 42.189 100.855 42.543 100.233 42.7958C99.6103 43.0447 98.8985 43.1692 98.0972 43.1692C96.8175 43.1692 95.8081 42.9066 95.0691 42.3815C94.3339 41.8525 93.9139 41.1446 93.8088 40.2578L96.6269 40.1878C96.6891 40.5145 96.8506 40.7634 97.1112 40.9346C97.3718 41.1057 97.7043 41.1913 98.1089 41.1913C98.4745 41.1913 98.7721 41.1232 99.0016 40.9871C99.231 40.851 99.3477 40.6701 99.3516 40.4445C99.3477 40.2422 99.2583 40.0808 99.0832 39.9602C98.9082 39.8357 98.634 39.7385 98.2606 39.6685L96.6969 39.3709C95.7984 39.2076 95.1294 38.9061 94.6898 38.4666C94.2503 38.0232 94.0325 37.4592 94.0364 36.7746C94.0325 36.1756 94.192 35.6641 94.5148 35.2401C94.8377 34.8122 95.2966 34.4855 95.8918 34.2599C96.4869 34.0343 97.189 33.9215 97.998 33.9215C99.2116 33.9215 100.168 34.1763 100.869 34.6858C101.569 35.1915 101.956 35.8877 102.03 36.7746ZM108.667 43.1692C107.729 43.1692 106.92 42.9844 106.24 42.6149C105.563 42.2415 105.042 41.7106 104.676 41.0221C104.314 40.3297 104.133 39.5071 104.133 38.5541C104.133 37.6284 104.316 36.8193 104.682 36.1269C105.047 35.4307 105.563 34.89 106.228 34.5049C106.893 34.116 107.677 33.9215 108.579 33.9215C109.217 33.9215 109.801 34.0207 110.33 34.2191C110.859 34.4174 111.316 34.7111 111.701 35.1001C112.086 35.489 112.385 35.9694 112.599 36.5412C112.813 37.1091 112.92 37.7606 112.92 38.4958V39.2076H105.131V37.5506H110.265C110.261 37.2472 110.19 36.9768 110.05 36.7396C109.909 36.5023 109.717 36.3175 109.472 36.1853C109.231 36.0491 108.953 35.9811 108.638 35.9811C108.319 35.9811 108.033 36.053 107.78 36.197C107.527 36.337 107.327 36.5295 107.179 36.7746C107.031 37.0157 106.953 37.29 106.946 37.5972V39.2834C106.946 39.649 107.018 39.9699 107.161 40.2461C107.305 40.5184 107.51 40.7304 107.774 40.8821C108.039 41.0338 108.354 41.1096 108.719 41.1096C108.972 41.1096 109.202 41.0746 109.408 41.0046C109.614 40.9346 109.791 40.8315 109.939 40.6954C110.086 40.5592 110.197 40.392 110.271 40.1936L112.891 40.2694C112.782 40.8568 112.543 41.3683 112.173 41.8039C111.808 42.2357 111.327 42.5721 110.732 42.8133C110.137 43.0506 109.449 43.1692 108.667 43.1692ZM118.052 31.0509V43H115.199V31.0509H118.052ZM128.513 36.7746L125.894 36.8446C125.866 36.6579 125.793 36.4926 125.672 36.3487C125.551 36.2008 125.394 36.0861 125.199 36.0044C125.009 35.9188 124.787 35.8761 124.534 35.8761C124.204 35.8761 123.922 35.9422 123.688 36.0744C123.459 36.2067 123.346 36.3856 123.35 36.6112C123.346 36.7862 123.416 36.9379 123.56 37.0663C123.708 37.1947 123.97 37.2977 124.348 37.3755L126.075 37.7023C126.969 37.8734 127.634 38.1574 128.07 38.5541C128.51 38.9508 128.731 39.476 128.735 40.1294C128.731 40.744 128.548 41.2788 128.187 41.7339C127.829 42.189 127.339 42.543 126.716 42.7958C126.094 43.0447 125.382 43.1692 124.581 43.1692C123.301 43.1692 122.292 42.9066 121.553 42.3815C120.818 41.8525 120.398 41.1446 120.293 40.2578L123.111 40.1878C123.173 40.5145 123.334 40.7634 123.595 40.9346C123.856 41.1057 124.188 41.1913 124.593 41.1913C124.958 41.1913 125.256 41.1232 125.485 40.9871C125.715 40.851 125.831 40.6701 125.835 40.4445C125.831 40.2422 125.742 40.0808 125.567 39.9602C125.392 39.8357 125.118 39.7385 124.744 39.6685L123.181 39.3709C122.282 39.2076 121.613 38.9061 121.174 38.4666C120.734 38.0232 120.516 37.4592 120.52 36.7746C120.516 36.1756 120.676 35.6641 120.999 35.2401C121.321 34.8122 121.78 34.4855 122.376 34.2599C122.971 34.0343 123.673 33.9215 124.482 33.9215C125.695 33.9215 126.652 34.1763 127.352 34.6858C128.052 35.1915 128.44 35.8877 128.513 36.7746Z" fill="white"/>
</svg>
